<svg id="Layer_1" data-name="Layer 1" xmlns="http://www.w3.org/2000/svg" viewBox="0 0 508.96 508.96"><defs><style>.cls-1{fill:#fff;}.cls-2{fill:#345d9d;}</style></defs><title>litecoin-ltc</title><circle class="cls-1" cx="254.48" cy="254.48" r="226.94"/><path class="cls-2" d="M256.38,2C115.84,2,1.9,116,1.9,256.52S115.84,511,256.38,511,510.87,397.07,510.87,256.52h0C511.27,116.38,398,2.45,257.87,2h-1.49Zm4.32,263.11-26.5,89.34H375.92a7.15,7.15,0,0,1,7.4,6.89h0v2.34L371,406.25a9.18,9.18,0,0,1-9.24,6.78H144.86l36.35-123.85L140.54,301.5l9.25-28.34,40.66-12.33L241.6,87.07a9.3,9.3,0,0,1,9.24-6.78h54.84a7.15,7.15,0,0,1,7.39,6.9h0v2.35L269.94,236.19l40.67-12.33L302,253.44Z" transform="translate(-1.9 -2.04)"/></svg>